<?xml version="1.0" encoding="UTF-8"?>
<svg width="5133px" height="1580px" viewBox="0 0 5133 1580" version="1.1" xmlns="http://www.w3.org/2000/svg" xmlns:xlink="http://www.w3.org/1999/xlink">
    <!-- Generator: Sketch 59.1 (86144) - https://sketch.com -->
    <title>logo </title>
    <desc>Created with Sketch.</desc>
    <defs>
        <linearGradient x1="52.3239568%" y1="0%" x2="60.8478473%" y2="68.1792847%" id="linearGradient-1">
            <stop stop-color="#1396FF" offset="0%"></stop>
            <stop stop-color="#005DE5" offset="100%"></stop>
        </linearGradient>
        <linearGradient x1="68.8953574%" y1="0%" x2="94.2136232%" y2="28.9371997%" id="linearGradient-2">
            <stop stop-color="#20ADFF" offset="0%"></stop>
            <stop stop-color="#0060F1" offset="100%"></stop>
        </linearGradient>
        <linearGradient x1="15.5441738%" y1="11.7717359%" x2="91.5457887%" y2="165.017413%" id="linearGradient-3">
            <stop stop-color="#005EEF" offset="0%"></stop>
            <stop stop-color="#199FFF" offset="100%"></stop>
        </linearGradient>
        <linearGradient x1="54.191512%" y1="25.6785606%" x2="66.530331%" y2="46.0119474%" id="linearGradient-4">
            <stop stop-color="#22B7FF" offset="0%"></stop>
            <stop stop-color="#1676FF" offset="100%"></stop>
        </linearGradient>
    </defs>
    <g id="页面-1" stroke="none" stroke-width="1" fill="none" fill-rule="evenodd">
        <g id="logo-">
            <path d="M1673.046,1337.969 L1865.846,1337.969 L1949.736,994.489 L2031.426,1337.969 L2227.306,1337.969 L2377.946,730.079 L2219.836,730.079 L2132.436,1052.029 L2048.116,731.839 L1849.156,731.839 L1772.296,1056.419 L1690.606,731.839 L1530.746,731.839 L1673.046,1337.969 Z M2386.126,1335.769 L2565.316,1335.769 L2621.966,1215.419 L2904.376,1215.419 L2957.956,1335.769 L3145.046,1335.769 L2867.036,730.959 L2659.746,730.959 L2386.126,1335.769 Z M2766.466,893.469 L2859.136,1102.979 L2668.966,1102.979 L2766.466,893.469 Z M3158.856,731.839 L3158.856,872.829 L3371.426,872.829 L3371.426,1336.349 L3535.246,1335.379 L3535.246,872.829 L3704.766,872.829 L3754.836,731.839 L3158.856,731.839 L3158.856,731.839 Z M3854.096,1337.089 L4367.506,1337.089 L4409.676,1209.709 L4020.546,1209.709 L4020.546,1092.879 L4349.946,1092.879 L4385.956,980.439 L4020.546,980.439 L4020.546,860.089 L4367.506,860.089 L4409.676,732.709 L3854.096,732.709 L3854.096,1337.089 L3854.096,1337.089 Z M4517.276,1337.559 L4679.336,1338.019 L4679.336,1179.409 L4885.756,1179.409 C4899.21227,1179.50851 4912.31576,1183.72396 4923.306,1191.489 C4933.89555,1198.77993 4942.31892,1208.79607 4947.686,1220.479 C4952.956,1232.049 4955.58933,1246.32233 4955.586,1263.299 L4955.586,1337.129 L5126.436,1335.779 L5127.316,1211.909 C5127.21664,1200.81974 5125.88853,1189.77566 5123.356,1178.979 C5120.726,1167.269 5115.16267,1156.22233 5106.666,1145.839 C5098.16933,1135.45567 5089.31267,1127.48233 5080.096,1121.919 C5069.08881,1115.439 5057.72772,1109.57985 5046.066,1104.369 L5080.756,1084.189 C5092.65968,1077.81218 5102.89296,1068.71974 5110.626,1057.649 C5118.236,1046.679 5123.79933,1031.68567 5127.316,1012.669 C5130.826,992.189 5132.50933,966.299 5132.366,934.999 C5132.22267,903.699 5130.756,879.272333 5127.966,861.719 C5125.186,844.169 5118.37933,823.982333 5107.546,801.159 C5096.716,778.349 5079.66267,760.799 5056.386,748.509 C5033.106,736.229 4999.066,730.085667 4954.266,730.079 L4517.276,730.079 L4517.276,1337.559 L4517.276,1337.559 Z M4874.336,870.189 C4894.536,870.189 4910.12933,873.629 4921.116,880.509 C4931.71465,887.005487 4940.42165,896.171108 4946.366,907.089 C4953.976,921.729 4957.26933,941.785667 4956.246,967.259 C4955.22267,992.732333 4952.14933,1009.20233 4947.026,1016.669 C4941.89156,1024.14765 4934.93605,1030.19457 4926.816,1034.239 C4918.476,1038.489 4901.42267,1040.61233 4875.656,1040.609 L4679.336,1040.609 L4679.336,870.189 L4874.336,870.189 L4874.336,870.189 Z" id="water_drop" fill="#3672F6"></path>
            <path d="M874.056293,1011.569 C874.056293,1167.219 747.866,1293.409 592.216,1293.409 C436.566,1293.409 310.374696,1167.219 310.374696,1011.569 C310.300911,961.226118 323.775723,911.790954 349.386,868.449 C366.517,837.549 391.607,803.169 428.334,766.679 C596.496,603.039 621.206,524.039 621.206,524.039 C632.856,605.159 682.226,671.569 683.196,673.219 C699.016,696.919 751.126,760.789 762.486,775.169 C767.136,781.059 789.286,805.969 809.126,831.609 C851.172434,882.143006 874.150956,945.83028 874.056293,1011.569 Z" id="椭圆_1" fill="url(#linearGradient-1)"></path>
            <path d="M973.406,557.969 C973.406,557.969 892.056,576.729 921.406,710.969 C933.556,774.259 969.146,812.849 988.406,876.969 C1013.946,961.989 1019.906,1070.539 956.256,1198.809 C835.626,1402.529 611.356,1442.559 458.406,1391.969 C414.255,1378.129 384.379,1358.739 358.406,1344.969 C300.8,1325.049 323.575,1508.039 424.098,1553.129 C428.706,1554.699 986.376,1702.869 1167.406,1106.969 C1168.346,1103.269 1216.536,893.989 1092.406,695.969 C1043.906,616.319 984.896,567.049 973.406,557.969 Z" id="形状_4" fill="url(#linearGradient-2)"></path>
            <path d="M433.045,571.889 C388.086,614.129 132.951,781.179 175.995,1062.979 C207.095,1287.689 433.567,1424.699 595.346,1429.289 C735.896,1448.939 1068.476,1380.469 1170.406,1091.969 C1169.536,1092.829 1130.336,1452.609 742.406,1560.969 C374.177,1649.839 150.835,1387.749 140.66,1375.969 C117.43,1349.079 -42.334,1163.119 10.75,891.729 C61.15,634.069 342.371,517.439 388.668,501.969 C434.965,486.499 507.344,488.019 433.045,571.889 Z" id="形状_3" fill="url(#linearGradient-3)"></path>
            <path d="M589.436,0.005 C589.436,0.005 602.536,147.856 270.569,454.719 C111.121,599.759 -6.208,830.379 1.406,985.969 C0.082,985.329 3.211,816.329 360.115,620.509 C621.816,481.139 608.126,137.169 589.436,0.005 Z" id="形状_2" fill="url(#linearGradient-4)"></path>
        </g>
    </g>
</svg>