<?xml version="1.0" encoding="UTF-8"?>
<svg width="16px" height="16px" viewBox="0 0 16 16" version="1.1" xmlns="http://www.w3.org/2000/svg" xmlns:xlink="http://www.w3.org/1999/xlink">
    <!-- Generator: Sketch 54.1 (76490) - https://sketchapp.com -->
    <title>Warning</title>
    <desc>Created with Sketch.</desc>
    <g id="Page-1" stroke="none" stroke-width="1" fill="none" fill-rule="evenodd">
        <g id="活动易组件样式1" transform="translate(-1737.000000, -1538.000000)" fill="#FFA430">
            <g id="Group-Copy" transform="translate(1717.000000, 1518.000000)">
                <g id="Popconfirm">
                    <path d="M28,36 C23.581722,36 20,32.418278 20,28 C20,23.581722 23.581722,20 28,20 C32.418278,20 36,23.581722 36,28 C36,32.418278 32.418278,36 28,36 Z M28.1,22.8 C27.6042452,22.8 27.2085714,23.1958924 27.2085714,23.6842505 L27.2085714,28.8975552 C27.2085714,29.3864293 27.6076776,29.7818057 28.1,29.7818057 C28.5957548,29.7818057 28.9914286,29.3859133 28.9914286,28.8975552 L28.9914286,23.6842505 C28.9914286,23.1953764 28.5923224,22.8 28.1,22.8 Z M28.1,30.6171429 C27.6042452,30.6171429 27.2085714,31.016249 27.2085714,31.5085714 C27.2085714,32.0043262 27.6076776,32.4 28.1,32.4 C28.5957548,32.4 28.9914286,32.0008938 28.9914286,31.5085714 C28.9914286,31.0128166 28.5923224,30.6171429 28.1,30.6171429 Z" id="Warning"></path>
                </g>
            </g>
        </g>
    </g>
</svg>