<?xml version="1.0" encoding="UTF-8"?>
<svg width="104px" height="104px" viewBox="0 0 104 104" version="1.1" xmlns="http://www.w3.org/2000/svg" xmlns:xlink="http://www.w3.org/1999/xlink">
    <!-- Generator: Sketch 54.1 (76490) - https://sketchapp.com -->
    <title>Group</title>
    <desc>Created with Sketch.</desc>
    <g id="Page-1" stroke="none" stroke-width="1" fill="none" fill-rule="evenodd">
        <g id="概览票种为空" transform="translate(-669.000000, -1269.000000)" fill-rule="nonzero">
            <g id="Group" transform="translate(669.000000, 1269.000000)">
                <ellipse id="Oval" fill="#D3E8FF" opacity="0.55" cx="52.4369743" cy="80.266055" rx="30.3113164" ry="6.42844037"></ellipse>
                <path d="M72.768614,81.2082569 L29.2831637,81.2082569 C27.229584,81.2082569 25.5603,79.5504587 25.5603,77.5110092 L25.5603,26.9422018 C25.5603,24.9027523 27.229584,23.2449541 29.2831637,23.2449541 L72.768614,23.2449541 C74.8221937,23.2449541 76.4914778,24.9027523 76.4914778,26.9422018 L76.4914778,77.4990826 C76.4914778,79.5504587 74.8221937,81.2082569 72.768614,81.2082569 Z" id="Shape" fill="#B7DAFF"></path>
                <path d="M71.6637642,79.7889908 L30.3760043,79.7889908 C28.3224247,79.7889908 26.6531406,78.1311927 26.6531406,76.0917431 L26.6531406,28.087156 C26.6531406,26.0477064 28.3224247,24.3899083 30.3760043,24.3899083 L71.6637642,24.3899083 C73.7173438,24.3899083 75.3866279,26.0477064 75.3866279,28.087156 L75.3866279,76.0917431 C75.3866279,78.1311927 73.7173438,79.7889908 71.6637642,79.7889908 Z" id="Shape" fill="#FFFFFF"></path>
                <polygon id="Rectangle-path" fill="#FFFFFF" points="29.8475979 27.1926606 72.3723092 27.1926606 72.3723092 77.4633028 29.8475979 77.4633028"></polygon>
                <path d="M72.3723092,48.2669725 L72.3723092,74.6844037 C72.3723092,76.0559633 71.2554501,77.1651376 69.8743877,77.1651376 L32.3455194,77.1651376 C30.964457,77.1651376 29.8475979,76.0559633 29.8475979,74.6844037 L29.8475979,29.959633 C29.8475979,28.5880734 30.964457,27.4788991 32.3455194,27.4788991 L69.8743877,27.4788991 C71.2554501,27.4788991 72.3723092,28.5880734 72.3723092,29.959633 L72.3723092,34.253211 C72.7926325,34.253211 73.2009466,34.253211 73.6212699,34.2651376 L73.6212699,29.959633 C73.6212699,27.8963303 71.9399766,26.2385321 69.8743877,26.2385321 L32.3455194,26.2385321 L32.3455194,26.2385321 C30.2679212,26.2385321 28.5986371,27.9082569 28.5986371,29.959633 L28.5986371,74.6844037 C28.5986371,76.7477064 30.2799304,78.4055046 32.3455194,78.4055046 L69.8743877,78.4055046 C71.9519859,78.4055046 73.6212699,76.7357798 73.6212699,74.6844037 L73.6212699,48.3027523 C73.2129558,48.2908257 72.7926325,48.2788991 72.3723092,48.2669725 Z" id="Shape" fill="#A2C6FF"></path>
                <polygon id="Shape" fill="#EAEEF6" points="33.2221937 50.4733945 51.1159582 50.4733945 51.1159582 53.0614679 33.2221937 53.0614679"></polygon>
                <polygon id="Shape" fill="#EAEEF6" points="33.2221937 64.6183486 53.9741568 64.6183486 53.9741568 67.1944954 33.2221937 67.1944954"></polygon>
                <polygon id="Shape" fill="#EAEEF6" points="33.2221937 55.2917431 61.864226 55.2917431 61.864226 57.6889908 33.2221937 57.6889908"></polygon>
                <polygon id="Shape" fill="#EAEEF6" points="33.2221937 59.9550459 66.0794685 59.9550459 66.0794685 62.340367 33.2221937 62.340367"></polygon>
                <polygon id="Shape" fill="#EAEEF6" points="33.2702307 69.4724771 66.1275055 69.4724771 66.1275055 71.8577982 33.2702307 71.8577982"></polygon>
                <path d="M39.3228866,30.1743119 L39.3228866,30.1743119 C38.8305078,30.1743119 38.4221937,29.7688073 38.4221937,29.2798165 L38.4221937,24.3899083 C38.4221937,23.9009174 38.8305078,23.4954128 39.3228866,23.4954128 L39.3228866,23.4954128 C39.8152653,23.4954128 40.2235794,23.9009174 40.2235794,24.3899083 L40.2235794,29.2798165 C40.2235794,29.7688073 39.8152653,30.1743119 39.3228866,30.1743119 Z" id="Shape" fill="#D3E8FF"></path>
                <path d="M62.8850113,30.2697248 L62.8850113,30.2697248 C62.3926325,30.2697248 61.9843184,29.8642202 61.9843184,29.3752294 L61.9843184,24.4853211 C61.9843184,23.9963303 62.3926325,23.5908257 62.8850113,23.5908257 L62.8850113,23.5908257 C63.37739,23.5908257 63.7857041,23.9963303 63.7857041,24.4853211 L63.7857041,29.3752294 C63.7857041,29.8761468 63.37739,30.2697248 62.8850113,30.2697248 Z" id="Shape" fill="#D3E8FF"></path>
                <path d="M44.2827018,36.0422018 L44.2827018,36.4954128 C44.2827018,39.7275229 41.6526787,42.3394495 38.3981752,42.3394495 L37.9418242,42.3394495 L37.9418242,43.5798165 L38.3981752,43.5798165 C42.3131868,43.5798165 45.5316625,40.3954128 45.5316625,36.4954128 L45.5316625,36.0422018 L44.2827018,36.0422018 Z M55.5833946,43.7825688 L51.9566048,50.9504587 L48.3658427,43.7825688 L55.5833946,43.7825688 Z M46.2402076,42.4587156 L51.9926325,53.8844037 L57.7450575,42.4587156 L46.2402076,42.4587156 Z M65.5390528,41.6238532 C62.2845494,41.6238532 59.6545263,39.0119266 59.6545263,35.7798165 L59.6545263,35.3266055 L58.4055655,35.3266055 L58.4055655,35.7798165 C58.4055655,39.6678899 61.6120321,42.8642202 65.5390528,42.8642202 L65.9954039,42.8642202 L65.9954039,41.6238532 L65.5390528,41.6238532 Z" id="Shape" fill="#548EE2"></path>
                <path d="M72.108106,45.2018349 C73.3930944,45.2018349 74.9302769,44.653211 74.9302769,42.3275229 C74.9302769,40.0018349 72.3603,36.7100917 72.108106,36.7100917 C71.855912,36.7100917 69.2859351,39.9541284 69.2859351,42.3275229 C69.2739258,44.6889908 70.8231175,45.2018349 72.108106,45.2018349 L72.108106,45.2018349 Z" id="Shape" fill="#548EE2"></path>
                <path d="M34.7833946,89.5330275 C31.9492145,89.5330275 29.1030251,88.5908257 26.5810852,87.8036697 C24.8397457,87.1715596 24.0591452,87.3385321 23.1104154,88.5908257 C21.2129558,90.940367 19.1713854,93.4449541 16.7935563,95.4844037 C13.0106464,98.6211009 8.43512674,100.338532 2.91087732,100.338532 C7.64251704,102.377982 12.5422861,103.630275 17.8984062,103.940367 C18.847136,103.940367 20.264226,103.153211 21.0568357,102.377982 C22.1616856,101.125688 23.4226556,100.970642 25.1639951,101.280734 C27.0614547,101.745872 29.1030251,102.06789 31.1566048,102.06789 C32.1053346,102.06789 33.3663046,101.757798 34.3150344,101.43578 C40.6318935,98.6211009 44.8831637,94.0651376 48.1977133,88.7458716 C43.3099535,89.0559633 39.0466741,89.6880734 34.7833946,89.5330275 L34.7833946,89.5330275 Z M24.8517549,99.8733945 C22.7981752,99.2412844 21.3810852,99.7183486 19.9639951,101.125688 C19.1713854,101.912844 17.5981752,102.377982 16.4933254,102.377982 C14.2836256,102.377982 12.2300459,101.745872 9.55198586,101.280734 C10.1884755,100.648624 10.3445956,100.338532 10.5007157,100.338532 C16.3372053,98.1440367 20.6004847,94.5422018 23.9150344,89.9981651 C24.3833946,89.5330275 25.8124939,89.0559633 26.5930944,89.366055 C31.168614,90.9284404 35.9002538,91.5605505 40.6318935,90.7733945 C41.7367434,90.6183486 42.8415933,90.6183486 44.2586833,90.4633028 C40.6318935,96.4266055 34.4711545,102.688073 24.8517549,99.8733945 L24.8517549,99.8733945 Z M10.668845,20.3706422 C7.04205515,16.2917431 5.93720526,11.5926606 6.09332536,6.58348624 C6.09332536,5.33119266 5.78108517,4.38899083 4.67623529,3.44678899 C3.41526531,2.50458716 2.62265561,1.25229358 1.51780573,0 C-1.31637441,7.04862385 -1.16025432,17.5559633 10.668845,20.8357798 L10.668845,20.3706422 L10.668845,20.3706422 Z M2.45452628,2.8266055 C3.40325607,3.92385321 4.82034614,5.02110092 4.97646623,5.96330275 C5.13258633,10.0422018 5.61295584,13.9541284 7.49840619,18.0330275 C1.83004591,16.7688073 -0.223533766,6.89357798 2.45452628,2.8266055 L2.45452628,2.8266055 Z M97.2914778,36.6266055 C95.081778,37.5211009 93.0281983,37.5211009 90.3501383,37.9623853 C90.9866279,39.453211 91.7672284,41.2302752 92.5598381,42.8642202 C98.0840875,41.9697248 102.023118,38.4036697 103.920577,32.9055046 C101.710877,34.0981651 99.5011776,35.7321101 97.2914778,36.6266055 L97.2914778,36.6266055 Z M93.5085679,41.8266055 C92.8720782,40.9321101 92.2475979,39.453211 91.7672284,38.4036697 C93.820808,38.2605505 96.0305078,37.8073394 97.603718,37.2110092 C99.1769281,36.6146789 100.918268,35.4220183 102.335358,34.5394495 C100.762148,38.2605505 97.2914778,41.087156 93.5085679,41.8266055 L93.5085679,41.8266055 Z M24.2392838,15.3614679 C24.551524,16.6137615 24.7076441,17.5559633 25.0318935,18.4981651 C25.3441337,19.440367 26.1367434,20.3825688 26.4489836,21.312844 C26.6051036,21.9449541 26.2928635,22.5651376 26.1367434,23.5073394 C23.4466741,21.0027523 22.6540644,17.7110092 24.2392838,15.3614679 L24.2392838,15.3614679 Z" id="Shape" fill="#D8E8FF"></path>
            </g>
        </g>
    </g>
</svg>